<svg width="244" height="44" viewBox="0 0 244 44" fill="none" xmlns="http://www.w3.org/2000/svg">
<g clip-path="url(#clip0_5421_2083)">
<mask id="mask0_5421_2083" style="mask-type:luminance" maskUnits="userSpaceOnUse" x="0" y="0" width="244" height="44">
<path d="M244 0H0V44H244V0Z" fill="white"/>
</mask>
<g mask="url(#mask0_5421_2083)">
<mask id="mask1_5421_2083" style="mask-type:luminance" maskUnits="userSpaceOnUse" x="19" y="0" width="19" height="44">
<path d="M36.9827 22.7193L37.0258 5.49552L19.4297 0.249573L19.6631 43.713C36.6119 35.9551 37.0258 26.4892 37.0258 26.4892L34.9702 24.2092L36.9827 22.7193ZM25.6475 8.49294L30.808 10.0378V20.4177L25.6475 18.8728V8.49294ZM30.808 28.8635C29.2221 30.3692 27.4938 31.7167 25.6475 32.8869V24.4863L30.808 26.0312V28.8635Z" fill="white"/>
</mask>
<g mask="url(#mask1_5421_2083)">
<path d="M25.6484 32.2834L26.3173 32.8869H25.6484V32.2834Z" fill="#F26F3D"/>
<path d="M25.6484 31.5543L27.1254 32.8869H26.3173L25.6484 32.2835V31.5543Z" fill="#F26F3E"/>
<path d="M25.6484 30.827L27.655 32.6353L27.4294 32.8869H27.1254L25.6484 31.5543V30.827Z" fill="#F2703F"/>
<path d="M25.6484 30.0979L28.0179 32.2324L27.655 32.6353L25.6484 30.8271V30.0979Z" fill="#F2703F"/>
<path d="M25.6484 29.3687L28.3788 31.8315L28.0179 32.2324L25.6484 30.0979V29.3687Z" fill="#F27140"/>
<path d="M25.6484 28.6415L28.7397 31.4286L28.3788 31.8315L25.6484 29.3687V28.6415Z" fill="#F27241"/>
<path d="M25.6484 27.9121L29.1006 31.0255L28.7397 31.4284L25.6484 28.6414V27.9121Z" fill="#F27242"/>
<path d="M25.6484 27.1849L29.4634 30.6226L29.1006 31.0255L25.6484 27.9122V27.1849Z" fill="#F27342"/>
<path d="M25.6484 26.4557L29.8243 30.2197L29.4634 30.6226L25.6484 27.185V26.4557Z" fill="#F37443"/>
<path d="M25.6484 25.7266L30.1852 29.8168L29.8243 30.2197L25.6484 26.4558V25.7266Z" fill="#F37444"/>
<path d="M25.6484 24.9993L30.5481 29.4159L30.1852 29.8168L25.6484 25.7266V24.9993Z" fill="#F37545"/>
<path d="M25.8877 24.4863L30.809 28.9225V29.123L30.5481 29.4158L25.6484 24.9994V24.4863H25.8877Z" fill="#F37646"/>
<path d="M26.6948 24.4863L30.808 28.1933V28.9225L25.8867 24.4863H26.6948Z" fill="#F37646"/>
<path d="M27.5034 24.4863L30.8085 27.4661V28.1933L26.6953 24.4863H27.5034Z" fill="#F37747"/>
<path d="M28.312 24.4863L30.809 26.7369V27.4661L27.5039 24.4863H28.312Z" fill="#F37848"/>
<path d="M29.1206 24.4863L30.8094 26.0077V26.7369L28.3125 24.4863H29.1206Z" fill="#F37949"/>
<path d="M29.9292 24.4863L30.8099 25.2804V26.0076L29.1211 24.4863H29.9292Z" fill="#F3794A"/>
<path d="M30.7378 24.4863L30.8104 24.5512V25.2804L29.9297 24.4863H30.7378Z" fill="#F37A4B"/>
<path d="M30.8069 24.5512L30.7344 24.4863H30.8069V24.5512Z" fill="#F37B4C"/>
<path d="M25.6484 19.8989L26.2231 20.4178H25.6484V19.8989Z" fill="#F37A4B"/>
<path d="M25.6484 19.1717L27.0313 20.4178H26.2231L25.6484 19.8989V19.1717Z" fill="#F37B4C"/>
<path d="M25.6484 18.4423L27.8393 20.4176H27.0313L25.6484 19.1715V18.4423Z" fill="#F37C4D"/>
<path d="M25.6484 17.7151L28.6475 20.4177H27.8393L25.6484 18.4423V17.7151Z" fill="#F37D4E"/>
<path d="M25.6484 16.9859L29.4556 20.4177H28.6475L25.6484 17.7151V16.9859Z" fill="#F37D4F"/>
<path d="M25.6484 16.2567L30.2637 20.4177H29.4556L25.6484 16.9859V16.2567Z" fill="#F47E50"/>
<path d="M25.6484 15.5295L30.809 20.1819V20.4177H30.2637L25.6484 16.2568V15.5295Z" fill="#F47F51"/>
<path d="M25.6484 14.8004L30.809 19.4527V20.1819L25.6484 15.5296V14.8004Z" fill="#F48052"/>
<path d="M25.6484 14.0732L30.809 18.7236V19.4528L25.6484 14.8004V14.0732Z" fill="#F48153"/>
<path d="M25.6484 13.3438L30.809 17.9961V18.7234L25.6484 14.073V13.3438Z" fill="#F48254"/>
<path d="M25.6484 12.6146L30.809 17.267V17.9962L25.6484 13.3438V12.6146Z" fill="#F48355"/>
<path d="M25.6484 11.8874L30.809 16.5397V17.267L25.6484 12.6146V11.8874Z" fill="#F48457"/>
<path d="M25.6484 11.1582L30.809 15.8106V16.5398L25.6484 11.8874V11.1582Z" fill="#F48558"/>
<path d="M25.6484 10.429L30.809 15.0814V15.8106L25.6484 11.1582V10.429Z" fill="#F48659"/>
<path d="M25.6484 9.70184L30.809 14.3542V15.0814L25.6484 10.4291V9.70184Z" fill="#F5875A"/>
<path d="M25.6484 8.97244L30.809 13.6248V14.354L25.6484 9.70164V8.97244Z" fill="#F5875B"/>
<path d="M25.923 8.49286L30.809 12.8956V13.6248L25.6484 8.97246V8.49286H25.923Z" fill="#F5885D"/>
<path d="M26.7302 8.49285L30.8081 12.1684V12.8956L25.9221 8.49285H26.7302Z" fill="#F5895E"/>
<path d="M27.5386 8.49286L30.8083 11.4392V12.1684L26.7305 8.49286H27.5386Z" fill="#F58B5F"/>
<path d="M28.3471 8.49286L30.8088 10.7119V11.4392L27.5391 8.49286H28.3471Z" fill="#F58C60"/>
<path d="M29.1519 8.49286L30.8054 9.98273V10.7119L28.3438 8.49286H29.1519Z" fill="#F58D62"/>
<path d="M29.9644 8.49286L30.8098 9.25548V9.98273L29.1562 8.49286H29.9644Z" fill="#F58E63"/>
<path d="M30.7691 8.49286L30.8063 8.52628V9.25548L29.9609 8.49286H30.7691Z" fill="#F58F64"/>
<path d="M30.8107 8.52628L30.7734 8.49286H30.8107V8.52628Z" fill="#F69065"/>
<path d="M19.4297 43.4319L19.7396 43.7129H19.4297V43.4319Z" fill="#F16534"/>
<path d="M19.4297 42.7046L20.5477 43.7129H19.7396L19.4297 43.4319V42.7046Z" fill="#F16534"/>
<path d="M19.4297 41.9755L21.3558 43.713H20.5477L19.4297 42.7047V41.9755Z" fill="#F16634"/>
<path d="M19.4297 41.2463L22.164 43.713H21.3558L19.4297 41.9755V41.2463Z" fill="#F16635"/>
<path d="M19.4297 40.5191L22.972 43.7131H22.164L19.4297 41.2464V40.5191Z" fill="#F16635"/>
<path d="M19.4297 39.7897L23.7802 43.7129H22.972L19.4297 40.5189V39.7897Z" fill="#F16635"/>
<path d="M19.4297 39.0625L24.5883 43.7129H23.7802L19.4297 39.7897V39.0625Z" fill="#F16735"/>
<path d="M19.4297 38.3333L25.3964 43.7129H24.5883L19.4297 39.0625V38.3333Z" fill="#F16736"/>
<path d="M19.4297 37.6042L26.2045 43.713H25.3964L19.4297 38.3334V37.6042Z" fill="#F16736"/>
<path d="M19.4297 36.8769L27.0126 43.713H26.2045L19.4297 37.6042V36.8769Z" fill="#F16837"/>
<path d="M19.4297 36.1478L27.8208 43.7131H27.0126L19.4297 36.877V36.1478Z" fill="#F16837"/>
<path d="M19.4297 35.4206L28.6288 43.7131H27.8208L19.4297 36.1478V35.4206Z" fill="#F16937"/>
<path d="M19.4297 34.6912L29.437 43.7129H28.6288L19.4297 35.4204V34.6912Z" fill="#F16938"/>
<path d="M19.4297 33.962L30.045 43.5301L29.8803 43.7129H29.437L19.4297 34.6912V33.962Z" fill="#F16938"/>
<path d="M19.4297 33.2348L30.4059 43.1292L30.045 43.5302L19.4297 33.9621V33.2348Z" fill="#F16A39"/>
<path d="M19.4297 32.5057L30.7669 42.7263L30.4059 43.1293L19.4297 33.2349V32.5057Z" fill="#F26A39"/>
<path d="M19.4297 31.7765L31.1278 42.3234L30.7669 42.7264L19.4297 32.5057V31.7765Z" fill="#F26B3A"/>
<path d="M19.4297 31.0492L31.4906 41.9205L31.1278 42.3235L19.4297 31.7765V31.0492Z" fill="#F26B3A"/>
<path d="M19.4297 30.3199L31.8515 41.5174L31.4906 41.9204L19.4297 31.0491V30.3199Z" fill="#F26C3B"/>
<path d="M19.4297 29.5927L32.2124 41.1145L31.8515 41.5174L19.4297 30.3199V29.5927Z" fill="#F26C3B"/>
<path d="M19.4297 28.8635L32.5733 40.7116L32.2124 41.1145L19.4297 29.5927V28.8635Z" fill="#F26D3C"/>
<path d="M19.4297 28.1343L32.9362 40.3107L32.5733 40.7117L19.4297 28.8636V28.1343Z" fill="#F26D3C"/>
<path d="M19.4297 27.4071L33.2971 39.9078L32.9362 40.3107L19.4297 28.1344V27.4071Z" fill="#F26E3D"/>
<path d="M19.4297 26.678L33.658 39.5049L33.2971 39.9078L19.4297 27.4072V26.678Z" fill="#F26F3D"/>
<path d="M19.4297 25.9505L34.0189 39.1018L33.658 39.5047L19.4297 26.6778V25.9505Z" fill="#F26F3E"/>
<path d="M19.4297 25.2213L34.3818 38.6989L34.0189 39.1018L19.4297 25.9506V25.2213Z" fill="#F2703F"/>
<path d="M19.4297 24.4922L34.7427 38.296L34.3818 38.6989L19.4297 25.2214V24.4922Z" fill="#F2703F"/>
<path d="M19.4297 23.765L35.1036 37.8931L34.7427 38.296L19.4297 24.4922V23.765Z" fill="#F27140"/>
<path d="M19.4297 23.0358L35.4665 37.4922L35.1036 37.8931L19.4297 23.765V23.0358Z" fill="#F27241"/>
<path d="M19.4297 22.3086L35.8274 37.0893L35.4665 37.4922L19.4297 23.0358V22.3086Z" fill="#F27242"/>
<path d="M19.4297 21.5794L36.1883 36.6864L35.8274 37.0893L19.4297 22.3086V21.5794Z" fill="#F27342"/>
<path d="M19.4297 20.8501L36.5492 36.2833L36.1883 36.6862L19.4297 21.5793V20.8501Z" fill="#F37443"/>
<path d="M19.4297 20.1229L36.9121 35.8804L36.5492 36.2833L19.4297 20.8501V20.1229Z" fill="#F37444"/>
<path d="M19.4297 19.3937L37.0258 35.2554V35.7526L36.9121 35.8804L19.4297 20.1229V19.3937Z" fill="#F37545"/>
<path d="M19.4297 18.6665L37.0258 34.5281V35.2554L19.4297 19.3937V18.6665Z" fill="#F37646"/>
<path d="M19.4297 17.9373L37.0258 33.799V34.5282L19.4297 18.6665V17.9373Z" fill="#F37646"/>
<path d="M19.4297 17.2081L37.0258 33.0698V33.799L19.4297 17.9373V17.2081Z" fill="#F37747"/>
<path d="M19.4297 16.4807L37.0258 32.3424V33.0697L19.4297 17.2079V16.4807Z" fill="#F37848"/>
<path d="M19.4297 15.7515L37.0258 31.6132V32.3425L19.4297 16.4807V15.7515Z" fill="#F37949"/>
<path d="M19.4297 15.0224L37.0258 30.8841V31.6133L19.4297 15.7516V15.0224Z" fill="#F3794A"/>
<path d="M19.4297 14.2952L37.0258 30.1568V30.8841L19.4297 15.0224V14.2952Z" fill="#F37A4B"/>
<path d="M19.4297 13.566L37.0258 29.4277V30.1569L19.4297 14.2952V13.566Z" fill="#F37B4C"/>
<path d="M19.4297 12.8388L37.0258 28.7004V29.4277L19.4297 13.566V12.8388Z" fill="#F37C4D"/>
<path d="M19.4297 12.1094L37.0258 27.9711V28.7003L19.4297 12.8386V12.1094Z" fill="#F37D4E"/>
<path d="M19.4297 11.3802L37.0258 27.2419V27.9711L19.4297 12.1094V11.3802Z" fill="#F37D4F"/>
<path d="M19.4297 10.653L37.0258 26.5147V27.242L19.4297 11.3802V10.653Z" fill="#F47E50"/>
<path d="M19.4297 9.92383L37.0258 25.7855V26.5147L19.4297 10.653V9.92383Z" fill="#F47F51"/>
<path d="M19.4297 9.19663L37.0258 25.0583V25.7856L19.4297 9.92387V9.19663Z" fill="#F48052"/>
<path d="M19.4297 8.46748L37.0258 24.3292V25.0584L19.4297 9.19668V8.46748Z" fill="#F48153"/>
<path d="M19.4297 7.73827L37.0258 23.6V24.3292L19.4297 8.46747V7.73827Z" fill="#F48254"/>
<path d="M19.4297 7.01085L37.0258 22.8725V23.5998L19.4297 7.73809V7.01085Z" fill="#F48355"/>
<path d="M19.4297 6.2817L37.0258 22.1434V22.8726L19.4297 7.0109V6.2817Z" fill="#F48457"/>
<path d="M19.4297 5.55254L37.0258 21.4162V22.1434L19.4297 6.28174V5.55254Z" fill="#F48558"/>
<path d="M19.4297 4.82529L37.0258 20.687V21.4162L19.4297 5.55254V4.82529Z" fill="#F48659"/>
<path d="M19.4297 4.09614L37.0258 19.9578V20.687L19.4297 4.82534V4.09614Z" fill="#F5875A"/>
<path d="M19.4297 3.36893L37.0258 19.2306V19.9579L19.4297 4.09617V3.36893Z" fill="#F5875B"/>
<path d="M19.4297 2.63955L37.0258 18.5013V19.2305L19.4297 3.36875V2.63955Z" fill="#F5885D"/>
<path d="M19.4297 1.91038L37.0258 17.7721V18.5013L19.4297 2.63959V1.91038Z" fill="#F5895E"/>
<path d="M19.4297 1.18317L37.0258 17.0449V17.7721L19.4297 1.91041V1.18317Z" fill="#F58B5F"/>
<path d="M19.4297 0.453999L37.0258 16.3157V17.0449L19.4297 1.18321V0.453999Z" fill="#F58C60"/>
<path d="M20.0083 0.249573L37.0258 15.5885V16.3157L19.4297 0.453985V0.249573H20.0083Z" fill="#F58D62"/>
<path d="M20.8179 0.249573L37.0253 14.8593V15.5885L20.0078 0.249573H20.8179Z" fill="#F58E63"/>
<path d="M21.6264 0.249573L37.0277 14.1301V14.8593L20.8203 0.249573H21.6264Z" fill="#F58F64"/>
<path d="M22.4351 0.249573L37.0263 13.4028V14.1301L21.625 0.249573H22.4351Z" fill="#F69065"/>
<path d="M23.2456 0.249573L37.0287 12.6736V13.4028L22.4375 0.249573H23.2456Z" fill="#F69167"/>
<path d="M24.0503 0.249573L37.0253 11.9464V12.6736L23.2422 0.249573H24.0503Z" fill="#F69268"/>
<path d="M24.8589 0.249573L37.0257 11.2172V11.9464L24.0508 0.249573H24.8589Z" fill="#F69369"/>
<path d="M25.6675 0.249573L37.0262 10.4899V11.2172L24.8594 0.249573H25.6675Z" fill="#F6946B"/>
<path d="M26.4761 0.249573L37.0267 9.76067V10.4899L25.668 0.249573H26.4761Z" fill="#F6956C"/>
<path d="M27.2847 0.249573L37.0272 9.03147V9.76067L26.4766 0.249573H27.2847Z" fill="#F6976E"/>
<path d="M28.0932 0.249573L37.0276 8.30423V9.03147L27.2852 0.249573H28.0932Z" fill="#F6986F"/>
<path d="M28.9019 0.249573L37.0281 7.57503V8.30423L28.0938 0.249573H28.9019Z" fill="#F79971"/>
<path d="M29.7066 0.249573L37.0247 6.84583V7.57503L28.8984 0.249573H29.7066Z" fill="#F79A72"/>
<path d="M30.5151 0.249573L37.0252 6.11859V6.84583L29.707 0.249573H30.5151Z" fill="#F79C74"/>
<path d="M31.3239 0.249573L37.0258 5.38938V6.11858L30.5157 0.249573H31.3239Z" fill="#F79D75"/>
<path d="M32.1323 0.249573L37.0261 4.66214V5.38938L31.3242 0.249573H32.1323Z" fill="#F79E77"/>
<path d="M37.0266 4.66214L32.1328 0.249573H37.0266V4.66214Z" fill="#F79E77"/>
</g>
<mask id="mask2_5421_2083" style="mask-type:luminance" maskUnits="userSpaceOnUse" x="0" y="0" width="18" height="44">
<path d="M17.7365 0.249573L0.207114 5.49552C0.207114 10.3032 0.193384 15.0873 0.1875 19.8949C0.1875 24.0225 0.228691 27.81 2.41178 31.4816C4.55172 35.0805 7.97446 37.7123 11.3776 40.0336C12.476 40.7844 13.6077 41.49 14.763 42.1485C15.322 42.4669 17.2148 43.4713 17.8111 43.7209V37.1836C17.8111 37.1836 8.69036 32.4486 6.51122 26.0057L14.4864 24.4726V18.8178L6.38962 20.3902V10.0536L11.6188 8.5185V15.2386L17.8111 13.6897L17.7365 0.249573Z" fill="white"/>
</mask>
<g mask="url(#mask2_5421_2083)">
<path d="M0.183594 37.6866L6.8682 43.7129H0.183594V37.6866Z" fill="#F16332"/>
<path d="M0.183594 36.9575L7.67828 43.7129H6.8682L0.183594 37.6867V36.9575Z" fill="#F16332"/>
<path d="M0.183594 36.2283L8.48641 43.713H7.67828L0.183594 36.9575V36.2283Z" fill="#F16332"/>
<path d="M0.183594 35.5011L9.29449 43.713H8.48641L0.183594 36.2283V35.5011Z" fill="#F16332"/>
<path d="M0.183594 34.7719L10.1026 43.713H9.29449L0.183594 35.5011V34.7719Z" fill="#F16332"/>
<path d="M0.183594 34.0428L10.9107 43.7131H10.1026L0.183594 34.772V34.0428Z" fill="#F16332"/>
<path d="M0.183594 33.3134L11.7189 43.7129H10.9107L0.183594 34.0426V33.3134Z" fill="#F16332"/>
<path d="M0.183594 32.5842L12.527 43.7129H11.7189L0.183594 33.3134V32.5842Z" fill="#F16333"/>
<path d="M0.183594 31.857L13.337 43.713H12.527L0.183594 32.5842V31.857Z" fill="#F16433"/>
<path d="M0.183594 31.1278L14.1452 43.713H13.337L0.183594 31.857V31.1278Z" fill="#F16433"/>
<path d="M0.183594 30.3987L14.9533 43.7131H14.1452L0.183594 31.1279V30.3987Z" fill="#F16433"/>
<path d="M0.183594 29.6714L15.7614 43.7131H14.9533L0.183594 30.3987V29.6714Z" fill="#F16433"/>
<path d="M0.183594 28.9421L16.5695 43.7129H15.7614L0.183594 29.6713V28.9421Z" fill="#F16433"/>
<path d="M0.183594 28.2129L17.3776 43.7129H16.5695L0.183594 28.9421V28.2129Z" fill="#F16433"/>
<path d="M0.183594 27.4837L17.8131 43.3749V43.713H17.3776L0.183594 28.2129V27.4837Z" fill="#F16533"/>
<path d="M0.183594 26.7565L17.8131 42.6457V43.3749L0.183594 27.4837V26.7565Z" fill="#F16534"/>
<path d="M0.183594 26.0273L17.8131 41.9166V42.6458L0.183594 26.7565V26.0273Z" fill="#F16534"/>
<path d="M0.183594 25.2982L17.8131 41.1874V41.9166L0.183594 26.0274V25.2982Z" fill="#F16534"/>
<path d="M0.183594 24.5688L17.8131 40.46V41.1872L0.183594 25.298V24.5688Z" fill="#F16634"/>
<path d="M0.183594 23.8416L17.8131 39.7308V40.46L0.183594 24.5688V23.8416Z" fill="#F16635"/>
<path d="M0.183594 23.1124L17.8131 39.0016V39.7308L0.183594 23.8416V23.1124Z" fill="#F16635"/>
<path d="M0.183594 22.3833L17.8131 38.2725V39.0017L0.183594 23.1125V22.3833Z" fill="#F16635"/>
<path d="M0.183594 21.6541L17.8131 37.5452V38.2725L0.183594 22.3833V21.6541Z" fill="#F16735"/>
<path d="M0.183594 20.9269L17.8131 36.8161V37.5453L0.183594 21.6541V20.9269Z" fill="#F16736"/>
<path d="M0.183594 20.1975L17.8131 36.0867V36.8159L0.183594 20.9267V20.1975Z" fill="#F16736"/>
<path d="M0.183594 19.4683L17.8131 35.3575V36.0868L0.183594 20.1975V19.4683Z" fill="#F16837"/>
<path d="M0.183594 18.7392L17.8131 34.6304V35.3576L0.183594 19.4684V18.7392Z" fill="#F16837"/>
<path d="M0.183594 18.012L17.8131 33.9012V34.6304L0.183594 18.7392V18.012Z" fill="#F16937"/>
<path d="M0.183594 17.2828L17.8131 33.172V33.9012L0.183594 18.012V17.2828Z" fill="#F16938"/>
<path d="M0.183594 16.5536L17.8131 32.4428V33.1721L0.183594 17.2828V16.5536Z" fill="#F16938"/>
<path d="M0.183594 15.8242L17.8131 31.7154V32.4426L0.183594 16.5534V15.8242Z" fill="#F16A39"/>
<path d="M0.183594 15.0951L17.8131 30.9862V31.7154L0.183594 15.8243V15.0951Z" fill="#F26A39"/>
<path d="M0.183594 14.3678L17.8131 30.2571V30.9863L0.183594 15.0951V14.3678Z" fill="#F26B3A"/>
<path d="M0.183594 13.6387L17.8131 29.5279V30.2571L0.183594 14.3679V13.6387Z" fill="#F26B3A"/>
<path d="M0.183594 12.9095L17.8131 28.8007V29.5279L0.183594 13.6387V12.9095Z" fill="#F26C3B"/>
<path d="M0.183594 12.1804L17.8131 28.0715V28.8007L0.183594 12.9096V12.1804Z" fill="#F26C3B"/>
<path d="M0.183594 11.4529L17.8131 27.3421V28.0713L0.183594 12.1801V11.4529Z" fill="#F26D3C"/>
<path d="M0.183594 10.7237L17.8131 26.613V27.3422L0.183594 11.4529V10.7237Z" fill="#F26D3C"/>
<path d="M0.183594 9.99458L17.8131 25.8858V26.613L0.183594 10.7238V9.99458Z" fill="#F26E3D"/>
<path d="M0.183594 9.26543L17.8131 25.1566V25.8858L0.183594 9.99463V9.26543Z" fill="#F26F3D"/>
<path d="M0.183594 8.53819L17.8131 24.4274V25.1566L0.183594 9.26543V8.53819Z" fill="#F26F3E"/>
<path d="M0.183594 7.80903L17.8131 23.6982V24.4275L0.183594 8.53823V7.80903Z" fill="#F2703F"/>
<path d="M0.183594 7.07965L17.8131 22.9708V23.698L0.183594 7.80885V7.07965Z" fill="#F2703F"/>
<path d="M0.183594 6.35049L17.8131 22.2416V22.9708L0.183594 7.07969V6.35049Z" fill="#F27140"/>
<path d="M0.183594 5.62325L17.8131 21.5125V22.2417L0.183594 6.3505V5.62325Z" fill="#F27241"/>
<path d="M0.183594 5.25974L0.364047 5.05729L17.8131 20.7834V21.5126L0.183594 5.62338V5.25974Z" fill="#F27242"/>
<path d="M0.363281 5.05725L0.726151 4.65431L17.8123 20.0561V20.7833L0.363281 5.05725Z" fill="#F27342"/>
<path d="M0.726562 4.65423L1.08747 4.25131L17.8127 19.3268V20.056L0.726562 4.65423Z" fill="#F37443"/>
<path d="M1.08594 4.25146L1.44881 3.84853L17.8112 18.5977V19.3269L1.08594 4.25146Z" fill="#F37444"/>
<path d="M1.45312 3.84847L1.81403 3.44554L17.8155 17.8685V18.5977L1.45312 3.84847Z" fill="#F37545"/>
<path d="M1.8125 3.44547L2.1734 3.04254L17.814 17.1392V17.8684L1.8125 3.44547Z" fill="#F37646"/>
<path d="M2.17188 3.04246L2.53474 2.64149L17.8125 16.4119V17.1391L2.17188 3.04246Z" fill="#F37646"/>
<path d="M2.53528 2.64165L2.89619 2.23872L17.813 15.6829V16.4121L2.53528 2.64165Z" fill="#F37747"/>
<path d="M2.89453 2.23865L3.25544 1.83572L17.8113 14.9536V15.6828L2.89453 2.23865Z" fill="#F37848"/>
<path d="M3.25781 1.83566L3.62068 1.43272L17.8137 14.2263V14.9535L3.25781 1.83566Z" fill="#F37949"/>
<path d="M3.61719 1.43289L3.97809 1.02995L17.8102 13.4972V14.2264L3.61719 1.43289Z" fill="#F3794A"/>
<path d="M3.98047 1.02989L4.34138 0.626953L17.8126 12.768V13.4972L3.98047 1.02989Z" fill="#F37A4B"/>
<path d="M4.34375 0.626954L4.68309 0.249573H4.73407L17.815 12.0387V12.7679L4.34375 0.626954Z" fill="#F37B4C"/>
<path d="M5.53855 0.249573L17.8114 11.3115V12.0387L4.73047 0.249573H5.53855Z" fill="#F37C4D"/>
<path d="M6.34719 0.249573L17.8118 10.5823V11.3115L5.53906 0.249573H6.34719Z" fill="#F37D4E"/>
<path d="M7.15774 0.249573L17.8123 9.85307V10.5823L6.34766 0.249573H7.15774Z" fill="#F37D4F"/>
<path d="M7.96438 0.249573L17.8108 9.12387V9.85307L7.15625 0.249573H7.96438Z" fill="#F47E50"/>
<path d="M8.77297 0.249573L17.8113 8.39663V9.12387L7.96484 0.249573H8.77297Z" fill="#F47F51"/>
<path d="M9.58152 0.249573L17.8118 7.66743V8.39663L8.77344 0.249573H9.58152Z" fill="#F48052"/>
<path d="M10.3902 0.249573L17.8123 6.93823V7.66743L9.58203 0.249573H10.3902Z" fill="#F48153"/>
<path d="M11.1988 0.249573L17.8127 6.20903V6.93823L10.3906 0.249573H11.1988Z" fill="#F48254"/>
<path d="M12.0072 0.249573L17.8131 5.48178V6.20903L11.1991 0.249573H12.0072Z" fill="#F48355"/>
<path d="M12.8179 0.249573L17.8137 4.75258V5.48178L12.0078 0.249573H12.8179Z" fill="#F48457"/>
<path d="M13.6245 0.249573L17.8122 4.02336V4.75258L12.8164 0.249573H13.6245Z" fill="#F48558"/>
<path d="M14.4331 0.249573L17.8127 3.29415V4.02336L13.625 0.249573H14.4331Z" fill="#F48659"/>
<path d="M15.2416 0.249573L17.813 2.56495V3.29415L14.4335 0.249573H15.2416Z" fill="#F5875A"/>
<path d="M16.0503 0.249573L17.8136 1.83771V2.56495L15.2422 0.249573H16.0503Z" fill="#F5875B"/>
<path d="M16.857 0.249573L17.8102 1.1085V1.83771L16.0469 0.249573H16.857Z" fill="#F5885D"/>
<path d="M17.6675 0.249573L17.8126 0.379297V1.1085L16.8594 0.249573H17.6675Z" fill="#F5895E"/>
<path d="M17.8131 0.379297L17.668 0.249573H17.8131V0.379297Z" fill="#F58B5F"/>
</g>
<path d="M19.4776 44.002L19.2422 0.00390625L19.4815 0.0766307L37.2071 5.356L37.1619 22.8137L35.2398 24.2367L37.2071 26.4204V26.4971C37.2071 26.5953 37.0757 28.954 34.8534 32.2953C33.4024 34.4096 31.646 36.2961 29.6418 37.8931C26.9507 40.0906 23.6182 42.1052 19.7384 43.882L19.4776 44.002ZM19.6149 0.499213L19.8463 43.4241C28.3845 39.4656 32.5506 35.0824 34.5454 32.089C36.5068 29.1544 36.7952 26.9786 36.8344 26.5541L34.6945 24.1797L36.7971 22.623L36.8403 5.63116L19.6149 0.499213ZM25.4619 33.2211V24.2387L30.9932 25.8936V28.9402L30.9383 28.9952C29.3409 30.509 27.6015 31.8649 25.7444 33.0442L25.4619 33.2211ZM25.8307 24.736V32.5489C27.536 31.439 29.139 30.1787 30.6205 28.783V26.1708L25.8307 24.736ZM30.9913 20.6674L25.46 19.0124V8.24333L30.9913 9.90027V20.6674ZM25.8307 18.7352L30.6205 20.1681V10.1774L25.8307 8.74258V18.7352Z" fill="#FBC8AD"/>
<path d="M17.9969 43.9882L17.7419 43.886C17.1534 43.6442 15.2607 42.6438 14.6742 42.3136C13.5169 41.6551 12.3734 40.9377 11.273 40.1908C7.86406 37.8636 4.40797 35.2102 2.25038 31.5799C-0.0111688 27.7805 -0.00528483 23.7729 0.000599527 19.8988L0.0182533 5.35404L17.9223 0.00390625L17.9988 13.8372L11.4339 15.4784V8.76618L6.57733 10.1912V20.172L14.6742 18.5996V24.6318L6.75976 26.1452C9.01148 32.3425 17.8086 36.9674 17.8969 37.0145L17.9969 37.0656V43.9882ZM0.392889 5.63316L0.373275 19.8949C0.373275 23.7198 0.373274 27.6744 2.57206 31.3873C4.69432 34.9547 8.10921 37.5767 11.4829 39.8803C12.5735 40.6252 13.7091 41.3328 14.8566 41.9873C15.3685 42.2782 16.8788 43.0821 17.6261 43.428V37.2936C15.9598 36.3715 14.3682 35.32 12.8657 34.1488C10.512 32.3189 7.47765 29.4316 6.33804 26.0588L6.26936 25.8622L14.3113 24.3173V19.0438L6.21444 20.6163V9.91405L11.8124 8.27085V15.0008L17.634 13.5463L17.5634 0.499213L0.392889 5.63316Z" fill="#FBC8AD"/>
<path d="M66.8372 15.0736H58.1047V19.8557H66.0604V25.9213H58.1047V36.9891H50.8477V9.00806H66.839L66.8372 15.0736Z" fill="white"/>
<path d="M90.7673 30.0351C90.7673 33.573 89.097 35.9231 85.756 37.0854C84.3656 37.5624 82.666 37.8015 80.6559 37.8028C76.716 37.8028 73.8869 36.8325 72.1687 34.8919C71.0902 33.6615 70.5508 32.0425 70.5508 30.0351V17.9629H77.2785V28.7437C77.2785 29.9335 77.5629 30.8082 78.1316 31.3677C78.7412 31.9692 79.5908 32.2692 80.6817 32.2679C81.7721 32.2666 82.6124 31.9665 83.202 31.3677C83.7707 30.8082 84.0551 29.9335 84.0551 28.7437V17.9629H90.785L90.7673 30.0351Z" fill="white"/>
<path d="M102.056 36.9831H95.3281V6.19919H102.056V36.9831Z" fill="white"/>
<path d="M113.345 36.9831H106.617V6.19919H113.345V36.9831Z" fill="white"/>
<path d="M139.789 29.0307C139.789 31.1273 139.196 32.8307 138.01 34.1411C136.292 36.0411 133.677 36.9911 130.165 36.9911H118.539V9.00806H129.339C134.569 9.00806 137.185 11.4401 137.185 16.304C137.185 17.7664 136.898 18.9889 136.325 19.9717C135.788 20.8637 135.026 21.5989 134.117 22.1043C136.34 22.5681 137.861 23.4631 138.681 24.7892C139.436 26.0727 139.819 27.5413 139.789 29.0307ZM130.463 17.2671C130.463 15.9948 129.893 15.1542 128.752 14.7454C128.223 14.5956 127.674 14.5293 127.124 14.5488H125.801V20.0129H127.124C128.372 20.0129 129.268 19.7057 129.811 19.0911C130.251 18.5874 130.484 17.9357 130.463 17.2671ZM132.532 28.5393C132.532 26.9119 131.696 25.9553 130.025 25.6697C129.118 25.5675 128.205 25.5261 127.293 25.5459H125.804V31.4424H127.414C129.265 31.4424 130.556 31.2242 131.288 30.7879C132.117 30.2991 132.532 29.5496 132.532 28.5393Z" fill="#F16334" stroke="#FBBEA0" stroke-miterlimit="10"/>
<path d="M165.884 27.4721C165.884 30.1098 165.018 32.3715 163.285 34.2571C161.193 36.5527 158.255 37.6999 154.471 37.6987C150.686 37.6973 147.744 36.5501 145.644 34.2571C143.912 32.3727 143.046 30.0567 143.047 27.3089C143.047 24.8363 143.919 22.6435 145.663 20.7304C147.778 18.4215 150.786 17.2672 154.686 17.2672C158.272 17.2672 161.135 18.4215 163.275 20.7304C164.991 22.5494 165.928 24.9695 165.884 27.4721ZM158.89 27.4721C158.891 26.8901 158.778 26.3136 158.557 25.7756C158.335 25.2376 158.01 24.7488 157.599 24.3375C157.189 23.926 156.701 23.6001 156.164 23.3784C155.627 23.1567 155.051 23.0437 154.471 23.0457C153.825 23.0297 153.184 23.1633 152.597 23.436C152.011 23.7087 151.495 24.1132 151.091 24.6182C150.409 25.4191 150.034 26.4377 150.034 27.4907C150.034 28.5439 150.409 29.5624 151.091 30.3634C151.495 30.8685 152.011 31.2732 152.597 31.546C153.183 31.8187 153.825 31.9521 154.471 31.9358C155.054 31.9405 155.632 31.8286 156.172 31.6065C156.711 31.3844 157.202 31.0566 157.613 30.6424C158.024 30.2281 158.349 29.7357 158.569 29.194C158.788 28.6524 158.897 28.0723 158.89 27.4878V27.4721Z" fill="#F16334" stroke="#FBBEA0" stroke-miterlimit="10"/>
<path d="M191.796 27.4721C191.796 30.1098 190.931 32.3715 189.199 34.2571C187.107 36.5527 184.169 37.6999 180.385 37.6987C176.6 37.6973 173.658 36.5501 171.558 34.2571C169.826 32.3727 168.961 30.0567 168.961 27.3089C168.961 24.8363 169.833 22.6435 171.577 20.7304C173.692 18.4215 176.7 17.2672 180.6 17.2672C184.187 17.2672 187.051 18.4215 189.191 20.7304C190.905 22.5505 191.84 24.9702 191.796 27.4721ZM184.801 27.4721C184.804 26.8907 184.691 26.3145 184.471 25.7768C184.25 25.2391 183.925 24.7505 183.515 24.3391C183.105 23.9277 182.618 23.6016 182.081 23.3796C181.546 23.1576 180.971 23.0442 180.39 23.0457C179.744 23.0297 179.103 23.1633 178.517 23.436C177.931 23.7087 177.415 24.1132 177.011 24.6182C176.328 25.4191 175.954 26.4377 175.954 27.4907C175.954 28.5439 176.328 29.5624 177.011 30.3634C177.415 30.8685 177.931 31.2732 178.517 31.5459C179.103 31.8187 179.744 31.9521 180.39 31.9358C180.973 31.9403 181.552 31.8281 182.091 31.6059C182.63 31.3837 183.12 31.0559 183.531 30.6417C183.943 30.2275 184.268 29.7351 184.486 29.1936C184.706 28.652 184.815 28.0721 184.808 27.4878L184.801 27.4721Z" fill="#F16334" stroke="#FBBEA0" stroke-miterlimit="10"/>
<path d="M211.065 30.5677C211.065 32.5909 210.346 34.2439 208.907 35.5267C207.286 36.976 205.002 37.6966 202.056 37.6888C199.451 37.6888 196.922 36.9583 194.469 35.4972L196.903 30.7427C198.82 31.998 200.601 32.6263 202.246 32.6276C203.647 32.6276 204.347 32.1428 204.347 31.1731C204.349 30.9284 204.28 30.6882 204.15 30.481C204.02 30.2738 203.834 30.1082 203.613 30.0036C203.299 29.8267 202.592 29.6151 201.491 29.3688C200.669 29.2086 199.858 28.9965 199.063 28.7339C197.704 28.2097 196.789 27.3784 196.316 26.2396C196.04 25.5362 195.907 24.7844 195.924 24.0284C195.907 22.4105 196.516 20.8488 197.623 19.6709C199.079 18.0749 201.33 17.2769 204.372 17.2769C206.485 17.2772 208.576 17.6953 210.527 18.5073L208.246 22.8609C206.995 22.2058 205.799 21.8782 204.659 21.8782C203.314 21.8782 202.642 22.3466 202.642 23.2835C202.642 23.71 202.913 24.056 203.458 24.3174C203.704 24.4392 204.423 24.6233 205.616 24.8697C207.372 25.2392 208.665 25.8288 209.493 26.6387C210.541 27.645 211.065 28.9547 211.065 30.5677Z" fill="#F16334" stroke="#FBBEA0" stroke-miterlimit="10"/>
<path d="M225.808 23.4762H221.983V36.9832H215.256V23.4762H213.047V17.9728H215.256V12.2452H221.983V17.9629H225.808V23.4762Z" fill="#F16334" stroke="#FBBEA0" stroke-miterlimit="10"/>
<path d="M243.723 30.5677C243.723 32.5909 243 34.2439 241.555 35.5267C239.934 36.976 237.65 37.6966 234.704 37.6888C232.099 37.6888 229.57 36.9583 227.117 35.4972L229.549 30.7427C231.467 31.998 233.249 32.6263 234.894 32.6276C236.295 32.6276 236.995 32.1428 236.995 31.1731C236.997 30.9281 236.928 30.6879 236.798 30.4807C236.667 30.2734 236.481 30.1079 236.259 30.0036C235.948 29.8267 235.241 29.6151 234.137 29.3688C233.316 29.2087 232.505 28.9967 231.711 28.7339C230.35 28.2097 229.431 27.3784 228.955 26.2396C228.679 25.536 228.546 24.7843 228.563 24.0284C228.545 22.4108 229.153 20.849 230.259 19.6709C231.719 18.0749 233.968 17.2769 237.009 17.2769C239.122 17.277 241.214 17.6952 243.166 18.5073L240.894 22.8511C239.645 22.196 238.45 21.8684 237.309 21.8684C235.963 21.8684 235.29 22.3368 235.29 23.2737C235.29 23.7002 235.563 24.0461 236.108 24.3076C236.351 24.4294 237.071 24.6135 238.266 24.8599C240.019 25.2294 241.311 25.819 242.142 26.6288C243.195 27.6417 243.723 28.9547 243.723 30.5677Z" fill="#F16334" stroke="#FBBEA0" stroke-miterlimit="10"/>
</g>
</g>
<defs>
<clipPath id="clip0_5421_2083">
<rect width="244" height="44" fill="white"/>
</clipPath>
</defs>
</svg>
